<svg id="svg" xmlns="http://www.w3.org/2000/svg" xmlns:xlink="http://www.w3.org/1999/xlink" width="400" height="754.7169811320755" viewBox="0, 0, 400,754.7169811320755"><g id="svgg"><path id="path0" d="M143.498 28.488 C 141.766 31.726,141.297 46.519,142.803 50.443 C 143.389 51.971,145.563 52.830,148.841 52.830 L 153.962 52.830 153.784 44.151 C 153.442 27.526,148.247 19.616,143.498 28.488 M143.650 71.232 C 143.510 77.617,142.717 83.261,141.887 83.774 C 139.774 85.079,139.995 93.206,142.163 93.929 C 145.466 95.030,145.754 121.571,142.528 127.562 C 139.842 132.550,139.847 132.761,142.712 135.927 C 145.815 139.355,145.875 140.012,146.787 180.014 C 147.140 195.470,146.867 197.868,144.679 198.563 C 139.471 200.216,139.543 208.864,144.779 210.526 C 149.943 212.165,150.198 230.583,145.135 236.226 C 135.318 247.169,134.177 248.778,135.608 249.662 C 136.430 250.170,139.204 248.818,141.772 246.657 C 146.727 242.488,155.737 240.491,162.235 242.122 C 166.928 243.300,165.861 246.038,160.709 246.038 C 149.750 246.038,135.849 256.312,135.849 264.412 C 135.849 266.700,134.721 269.160,133.311 269.949 C 127.204 273.367,124.657 294.958,129.811 299.623 C 134.053 303.462,133.570 308.186,128.326 314.135 C 123.280 319.860,122.115 323.168,126.792 318.491 C 128.453 316.830,131.358 315.472,133.249 315.472 C 135.140 315.472,138.027 314.578,139.664 313.486 C 149.841 306.700,179.268 304.348,171.304 310.957 C 167.790 313.874,168.657 318.134,173.208 320.315 C 178.410 322.809,178.620 326.651,173.585 327.215 C 162.060 328.506,160.008 330.564,167.921 332.895 C 175.772 335.208,172.863 345.660,164.369 345.660 C 162.934 345.660,158.477 347.068,154.465 348.789 C 150.453 350.509,143.889 352.540,139.878 353.301 C 135.868 354.062,130.668 356.051,128.324 357.720 C 120.860 363.035,117.835 361.869,121.318 355.019 C 127.215 343.425,124.274 339.738,116.871 349.444 C 110.227 358.155,110.205 366.296,116.802 376.234 C 119.806 380.760,122.264 384.948,122.264 385.540 C 122.264 388.748,131.061 397.334,137.778 400.681 C 149.153 406.349,152.453 405.490,152.453 396.858 C 152.453 387.531,167.474 384.569,174.205 392.569 C 180.553 400.112,179.555 403.922,170.943 405.030 C 156.133 406.935,151.552 408.448,146.038 413.258 C 143.151 415.776,142.537 421.178,144.872 423.513 C 145.712 424.353,146.652 440.904,147.055 461.928 C 147.443 482.245,148.199 522.472,148.733 551.321 C 149.541 595.003,150.060 603.774,151.833 603.774 C 154.594 603.774,154.778 543.051,152.229 473.339 L 150.467 425.168 153.891 422.395 C 159.281 418.031,174.663 418.453,176.599 423.019 C 177.881 426.043,179.369 446.657,184.201 528.302 C 184.963 541.170,186.259 558.830,187.082 567.547 C 187.904 576.264,188.600 588.974,188.628 595.791 L 188.679 608.186 182.705 609.794 C 179.420 610.679,176.281 612.132,175.730 613.023 C 175.168 613.933,172.801 614.258,170.338 613.766 C 166.691 613.036,165.658 613.522,164.241 616.632 C 162.299 620.894,158.739 621.364,152.570 618.174 C 148.388 616.011,148.178 616.110,141.123 623.561 C 134.269 630.800,133.613 631.130,126.968 630.670 C 120.001 630.189,120.000 630.189,119.499 635.466 C 119.224 638.368,118.328 641.551,117.508 642.539 C 116.524 643.725,116.544 645.321,117.569 647.235 C 119.291 650.452,120.217 672.739,118.692 674.264 C 118.161 674.795,114.502 675.348,110.561 675.493 C 100.203 675.875,97.200 677.231,93.745 683.086 C 89.209 690.774,80.366 690.270,76.132 682.081 C 72.586 675.225,60.377 677.164,60.377 684.583 C 60.377 687.109,56.943 689.059,49.811 690.583 C 46.906 691.204,42.608 693.322,40.262 695.290 C 37.915 697.258,34.389 698.868,32.426 698.868 C 29.032 698.868,26.780 700.809,26.265 704.179 C 26.136 705.024,23.739 708.989,20.940 712.988 C 11.528 726.435,10.582 728.284,10.574 733.256 C 10.570 735.981,11.585 740.649,12.830 743.629 C 14.075 746.609,15.094 750.323,15.094 751.882 C 15.094 754.641,20.273 754.717,207.547 754.717 L 400.000 754.717 400.000 707.206 C 400.000 662.382,399.830 659.416,396.987 654.753 C 395.330 652.035,393.971 648.810,393.968 647.586 C 393.961 644.769,383.636 635.479,380.481 635.449 C 379.178 635.437,376.415 634.448,374.340 633.250 C 365.561 628.186,363.514 627.747,359.849 630.149 C 354.917 633.380,344.717 633.049,338.924 629.469 C 334.784 626.910,333.421 626.739,329.363 628.271 C 325.127 629.870,324.232 629.682,320.822 626.478 C 317.057 622.942,316.976 622.933,313.823 625.789 C 311.595 627.807,306.467 629.209,296.826 630.436 L 283.019 632.192 273.962 627.162 C 268.981 624.395,262.911 620.039,260.472 617.481 C 257.666 614.537,254.548 612.830,251.978 612.830 C 249.744 612.830,247.071 611.811,246.038 610.566 C 243.982 608.090,239.147 607.528,237.856 609.616 C 235.920 612.750,227.427 612.835,222.237 609.773 C 219.369 608.080,215.835 607.072,214.385 607.533 C 212.934 607.993,210.889 607.336,209.840 606.072 C 208.791 604.808,206.453 603.774,204.645 603.774 C 199.362 603.774,197.736 600.774,197.732 591.019 C 197.729 585.996,197.097 576.113,196.326 569.057 C 195.556 562.000,194.167 544.000,193.241 529.057 C 192.315 514.113,190.918 495.094,190.137 486.792 C 186.635 449.587,186.608 432.761,190.042 428.826 C 193.762 424.563,194.073 419.054,190.934 413.035 C 189.694 410.657,188.679 408.403,188.679 408.026 C 188.679 407.649,193.604 402.458,199.623 396.490 C 225.566 370.764,226.546 339.169,202.182 314.023 C 195.329 306.951,194.707 305.738,195.572 301.131 C 196.865 294.234,195.242 291.887,191.513 295.262 C 185.492 300.711,182.599 283.116,187.094 268.395 C 190.000 258.881,186.480 251.526,176.981 247.265 C 173.453 245.682,170.566 243.369,170.566 242.125 C 170.566 240.881,168.868 238.165,166.792 236.089 C 161.533 230.829,161.194 214.037,166.265 209.931 C 170.221 206.727,169.193 199.971,164.525 198.489 C 161.992 197.686,161.495 196.160,161.421 188.955 C 161.372 184.237,160.797 170.885,160.144 159.283 C 159.192 142.394,159.360 137.783,160.987 136.156 C 163.692 133.451,163.548 131.231,160.377 126.751 C 158.271 123.775,157.648 119.196,157.300 104.151 C 156.919 87.646,154.802 63.803,154.184 69.057 C 153.568 74.298,145.094 70.997,144.496 65.283 C 144.170 62.170,143.790 64.847,143.650 71.232 M155.472 107.170 L 155.472 116.226 150.943 116.226 L 146.415 116.226 146.415 107.170 L 146.415 98.113 150.943 98.113 L 155.472 98.113 155.472 107.170 M156.981 148.679 L 156.981 158.491 152.453 158.491 L 147.925 158.491 147.925 148.679 L 147.925 138.868 152.453 138.868 L 156.981 138.868 156.981 148.679 M158.491 186.226 C 158.491 187.368,158.915 190.425,159.434 193.019 C 160.503 198.363,152.313 200.463,150.350 195.348 C 147.809 188.726,149.285 184.151,153.962 184.151 C 156.798 184.151,158.491 184.927,158.491 186.226 M158.203 274.340 C 157.923 275.792,156.694 276.981,155.472 276.981 C 154.249 276.981,153.020 275.792,152.740 274.340 C 152.383 272.486,153.198 271.698,155.472 271.698 C 157.745 271.698,158.560 272.486,158.203 274.340 M137.075 295.755 C 137.453 296.887,136.887 297.453,135.755 297.075 C 134.665 296.712,133.476 295.524,133.113 294.434 C 132.736 293.302,133.302 292.736,134.434 293.113 C 135.524 293.476,136.712 294.665,137.075 295.755 M138.194 363.905 C 139.750 366.422,136.252 369.308,134.169 367.226 C 132.427 365.484,133.518 362.264,135.849 362.264 C 136.581 362.264,137.637 363.003,138.194 363.905 M179.358 686.359 C 187.028 692.069,187.524 701.993,180.446 708.147 C 176.950 711.187,176.906 711.475,179.205 716.296 C 186.288 731.150,161.196 746.785,148.040 735.715 C 142.772 731.282,142.462 728.708,145.783 716.981 C 150.909 698.881,150.910 698.868,147.646 698.868 C 144.255 698.868,144.938 690.927,148.664 687.013 C 153.703 681.722,172.588 681.319,179.358 686.359 M230.339 684.176 C 230.938 684.774,230.612 687.985,229.615 691.311 L 227.803 697.358 219.185 697.358 C 210.998 697.358,210.566 697.548,210.566 701.132 C 210.566 704.628,211.094 704.906,217.736 704.906 C 230.514 704.906,226.748 718.040,213.753 718.796 C 202.589 719.446,200.967 726.038,211.970 726.038 C 218.767 726.038,218.868 726.110,218.868 731.019 C 218.868 738.214,216.610 739.623,205.084 739.623 C 192.135 739.623,187.088 734.677,190.252 725.090 C 191.690 720.734,191.658 719.398,190.090 718.430 C 187.516 716.839,190.841 704.906,193.859 704.906 C 196.382 704.906,198.645 696.907,196.340 696.139 C 194.237 695.437,194.253 688.971,196.368 685.018 C 198.050 681.876,227.314 681.151,230.339 684.176 M263.429 684.445 C 274.819 689.204,276.093 703.909,265.977 713.855 C 259.867 719.863,259.798 720.966,265.020 729.239 C 270.012 737.145,269.750 740.463,263.978 742.476 C 258.013 744.555,257.756 744.366,251.808 733.546 C 245.826 722.665,245.218 722.529,243.553 731.698 C 242.104 739.675,237.638 741.888,231.721 737.562 C 228.836 735.453,232.020 716.572,237.801 701.508 C 238.568 699.509,238.041 698.868,235.633 698.868 C 231.883 698.868,231.150 692.169,234.413 687.707 C 238.128 682.627,254.636 680.771,263.429 684.445 M299.109 684.921 C 299.801 685.612,299.325 689.882,298.052 694.410 C 296.780 698.937,294.513 707.396,293.016 713.208 L 290.293 723.774 297.599 724.230 C 312.340 725.150,306.437 739.623,291.321 739.623 C 274.080 739.623,271.860 729.733,282.174 698.868 C 282.867 696.792,284.242 692.127,285.228 688.500 C 287.023 681.897,294.228 680.039,299.109 684.921 M334.799 684.485 C 335.742 685.428,328.044 718.217,323.537 732.453 C 321.095 740.166,318.962 741.148,311.769 737.871 C 306.363 735.408,307.193 729.926,318.672 692.276 L 321.833 681.910 327.833 682.715 C 331.134 683.158,334.268 683.954,334.799 684.485 M354.582 683.218 C 360.253 684.353,362.188 687.516,364.616 699.623 C 365.615 704.604,366.523 706.981,366.633 704.906 C 367.285 692.637,372.149 683.003,377.465 683.450 C 385.255 684.105,385.359 684.897,380.297 705.032 C 377.706 715.340,374.754 727.127,373.738 731.226 C 370.427 744.578,356.255 739.996,356.218 725.562 C 356.213 723.748,355.423 719.547,354.462 716.226 L 352.715 710.189 349.565 723.614 C 345.950 739.019,343.542 741.771,336.968 738.010 C 332.133 735.243,332.125 735.728,337.345 716.226 C 339.568 707.925,341.950 698.867,342.639 696.098 C 344.412 688.968,347.337 682.264,348.674 682.264 C 349.299 682.264,351.958 682.694,354.582 683.218 M160.000 697.197 C 160.000 697.938,161.096 698.965,162.435 699.479 C 163.940 700.057,164.582 701.518,164.115 703.303 C 163.484 705.715,163.892 705.995,166.586 705.001 C 170.402 703.592,171.715 699.015,168.828 697.185 C 166.136 695.479,160.000 695.488,160.000 697.197 M248.472 698.025 C 250.861 699.698,251.411 701.343,250.853 705.147 C 250.131 710.066,250.147 710.080,253.743 707.697 C 260.787 703.027,258.027 695.849,249.187 695.849 C 245.429 695.849,245.417 695.885,248.472 698.025 M161.091 713.472 C 159.313 716.480,158.440 724.319,159.790 725.153 C 161.011 725.908,166.038 722.421,166.038 720.819 C 166.038 718.960,161.676 712.482,161.091 713.472 " stroke="none" fill="#000000" fill-rule="evenodd"></path></g></svg>