<svg id="svg" xmlns="http://www.w3.org/2000/svg" xmlns:xlink="http://www.w3.org/1999/xlink" width="400" height="533.3333333333334" viewBox="0, 0, 400,533.3333333333334"><g id="svgg"><path id="path0" d="M0.000 266.667 L 0.000 533.333 200.000 533.333 L 400.000 533.333 400.000 266.667 L 400.000 0.000 200.000 0.000 L 0.000 0.000 0.000 266.667 M130.814 23.421 C 134.183 25.029,141.368 31.119,150.556 40.154 C 175.040 64.235,177.381 65.556,195.575 65.556 C 202.207 65.556,208.995 66.073,210.660 66.706 C 212.325 67.339,216.482 68.311,219.899 68.866 C 226.503 69.938,232.222 71.259,239.444 73.380 C 250.132 76.518,274.997 78.043,284.551 76.146 C 295.158 74.039,305.501 82.707,335.556 118.889 C 370.666 161.157,376.606 174.103,381.692 219.444 C 384.426 243.823,382.663 342.152,379.434 345.381 C 378.726 346.089,378.661 347.607,380.549 319.444 C 382.689 287.530,382.705 238.382,380.581 219.444 C 375.544 174.538,370.162 162.687,336.178 121.665 C 313.027 93.719,303.515 83.612,298.012 81.109 C 295.133 79.801,291.910 78.266,290.848 77.698 C 288.290 76.330,282.530 76.380,281.667 77.778 C 280.767 79.234,259.233 79.234,258.333 77.778 C 257.956 77.167,254.456 76.667,250.556 76.667 C 246.655 76.667,243.155 76.167,242.778 75.556 C 242.400 74.944,240.650 74.444,238.889 74.444 C 237.128 74.444,235.412 74.000,235.076 73.456 C 234.740 72.913,232.835 72.187,230.844 71.845 C 228.852 71.502,224.177 70.715,220.454 70.095 C 216.732 69.475,212.325 68.450,210.660 67.817 C 208.995 67.185,202.291 66.659,195.761 66.650 C 177.413 66.624,170.252 62.812,152.486 43.615 C 127.626 16.752,111.852 14.318,97.778 35.172 C 95.874 37.994,91.485 44.359,88.025 49.318 C 65.248 81.961,57.892 102.116,52.731 146.020 C 49.867 170.386,49.221 174.023,41.857 207.222 C 34.923 238.481,34.399 246.897,36.004 301.165 C 36.869 330.408,36.727 338.502,34.981 359.618 C 32.617 388.214,33.294 396.027,39.014 406.161 C 47.707 421.565,62.368 421.056,66.137 405.219 C 68.617 394.796,70.267 392.222,74.470 392.222 C 79.406 392.222,78.866 388.085,72.991 380.878 C 64.664 370.663,59.475 372.827,60.632 386.031 C 61.482 395.730,60.116 400.000,56.164 400.000 C 46.385 400.000,42.258 368.550,48.802 343.889 C 53.407 326.537,57.970 301.097,66.093 247.506 C 68.006 234.884,71.517 227.155,76.866 223.791 C 78.895 222.516,81.916 220.638,83.580 219.620 C 85.243 218.601,88.635 215.019,91.117 211.659 C 94.421 207.186,97.403 204.655,102.254 202.206 C 106.896 199.863,109.725 197.521,111.708 194.378 C 117.166 185.733,119.681 187.153,124.301 201.487 C 136.393 239.004,138.272 265.726,131.268 300.556 C 127.614 318.730,125.567 334.879,125.535 345.790 C 125.513 353.378,122.636 372.145,118.927 388.889 C 117.641 394.694,116.118 407.194,115.543 416.667 C 114.264 437.733,113.240 441.602,104.662 457.778 C 94.423 477.083,94.517 483.660,105.082 487.337 C 109.894 489.012,127.298 489.453,128.243 487.924 C 128.571 487.394,131.225 486.636,134.142 486.240 C 142.967 485.041,142.843 485.300,142.286 469.206 C 141.310 440.980,141.444 439.530,146.391 425.000 C 152.227 407.854,156.039 393.696,159.993 374.477 C 163.644 356.732,164.697 354.166,168.127 354.655 C 170.411 354.981,170.625 355.906,171.930 371.111 C 173.448 388.790,176.934 410.733,179.393 418.079 C 187.780 443.139,187.700 455.673,178.995 480.276 C 174.246 493.698,174.657 502.322,180.348 508.611 C 184.078 512.734,185.882 512.209,199.730 502.974 C 204.150 500.027,210.491 496.840,213.822 495.892 C 223.271 493.204,224.451 485.825,219.451 460.698 C 217.063 448.693,216.614 442.897,216.200 418.664 C 215.748 392.263,215.503 389.543,212.170 373.889 C 205.724 343.614,209.865 311.472,219.876 314.090 C 222.238 314.708,245.597 335.189,256.657 346.340 L 263.870 353.612 264.655 375.973 C 265.128 389.456,266.117 401.201,267.148 405.556 C 270.059 417.864,268.716 428.784,263.322 436.667 C 260.235 441.178,254.449 452.655,254.447 454.273 C 254.429 465.552,290.979 473.969,300.156 464.799 C 304.941 460.017,305.967 446.792,305.113 400.896 C 304.556 370.954,304.689 366.580,306.207 365.062 C 312.049 359.221,317.309 369.439,324.479 400.556 C 326.873 410.944,329.556 421.944,330.441 425.000 C 336.455 445.749,335.173 453.594,321.619 478.990 C 315.450 490.549,318.483 495.201,337.080 502.708 C 348.001 507.116,364.382 504.242,367.186 497.426 C 373.226 482.749,371.877 423.391,364.859 395.000 C 362.144 384.019,362.168 361.939,364.911 345.725 C 366.868 334.159,366.935 331.403,365.727 312.392 C 362.904 267.949,364.758 249.169,371.704 251.835 C 375.084 253.132,375.806 262.814,376.498 316.111 C 376.878 345.444,377.479 365.194,377.832 360.000 L 378.475 350.556 378.682 360.278 C 378.852 368.271,378.592 370.000,377.222 370.000 C 375.768 370.000,375.552 364.154,375.527 324.167 C 375.489 263.324,374.066 248.774,368.679 254.160 C 365.545 257.294,364.824 276.695,366.628 309.353 C 367.944 333.189,367.899 335.785,365.984 346.111 C 363.262 360.786,363.250 384.115,365.958 395.000 C 372.960 423.145,374.344 482.728,368.336 497.335 C 365.072 505.269,348.955 508.612,337.080 503.819 C 314.873 494.855,313.862 491.962,325.116 469.574 C 333.944 452.012,334.736 443.628,329.327 425.000 C 328.440 421.944,325.965 411.694,323.827 402.222 C 317.609 374.668,312.428 362.444,308.102 365.121 C 306.241 366.273,306.111 369.311,306.111 411.788 C 306.111 462.918,306.015 463.566,297.778 468.054 C 293.615 470.322,273.779 470.335,270.793 468.072 C 270.051 467.509,267.084 466.177,264.198 465.111 C 252.235 460.692,251.239 455.572,259.508 440.999 C 268.228 425.631,269.395 419.448,266.092 406.111 C 265.095 402.088,264.151 390.690,263.711 377.364 L 262.981 355.283 258.976 350.697 C 252.471 343.248,222.716 316.315,219.830 315.265 C 210.787 311.975,207.108 344.899,213.281 373.889 C 216.613 389.537,216.857 392.252,217.285 418.333 C 217.682 442.613,218.108 447.999,220.665 461.105 C 225.535 486.066,224.189 494.110,214.701 496.730 C 209.362 498.205,207.373 499.224,198.996 504.782 C 183.743 514.900,180.116 514.683,176.140 503.416 C 173.648 496.352,174.041 491.136,177.884 480.276 C 186.586 455.681,186.668 443.138,178.291 418.106 C 175.855 410.828,172.414 389.372,170.981 372.533 C 168.995 349.182,166.213 349.648,161.166 374.178 C 157.152 393.689,153.362 407.786,147.502 425.000 C 142.554 439.533,142.422 440.963,143.397 469.255 C 143.963 485.658,143.742 486.094,134.224 487.356 C 131.262 487.749,128.571 488.505,128.243 489.035 C 127.409 490.385,106.952 490.249,106.111 488.889 C 105.733 488.278,104.498 487.778,103.367 487.778 C 102.235 487.778,99.960 486.175,98.312 484.217 C 93.994 479.085,95.050 473.823,103.713 457.304 C 112.307 440.916,113.276 437.217,114.504 416.111 C 115.038 406.944,116.527 394.694,117.814 388.889 C 121.522 372.162,124.402 353.382,124.424 345.790 C 124.456 334.879,126.503 318.730,130.157 300.556 C 137.070 266.182,135.297 239.542,123.651 202.778 C 119.347 189.188,116.280 187.276,112.302 195.701 C 111.000 198.459,108.729 200.338,103.613 202.888 C 99.804 204.787,95.600 207.789,94.272 209.559 C 90.655 214.380,83.003 222.222,81.917 222.222 C 75.802 222.222,69.359 233.290,67.206 247.495 C 59.075 301.132,54.518 326.535,49.913 343.889 C 43.888 366.595,47.195 398.889,55.545 398.889 C 59.126 398.889,60.350 394.929,59.539 385.971 C 58.275 372.029,63.931 369.369,73.222 379.534 C 80.622 387.631,81.347 393.333,74.976 393.333 C 70.502 393.333,69.986 394.141,67.163 405.556 C 61.446 428.669,37.672 419.418,33.200 392.340 C 32.065 385.462,32.174 380.143,33.870 359.618 C 35.616 338.502,35.758 330.408,34.893 301.165 C 33.288 246.897,33.812 238.481,40.746 207.222 C 48.110 174.023,48.756 170.386,51.620 146.020 C 56.824 101.750,64.021 82.116,87.632 47.778 C 91.624 41.972,96.245 35.222,97.900 32.778 C 106.166 20.569,117.865 17.244,130.814 23.421 M379.970 398.889 C 381.096 410.194,382.352 420.444,382.759 421.667 C 383.455 423.750,383.419 423.761,382.194 421.843 C 380.921 419.850,376.568 381.656,376.856 375.000 L 377.000 371.667 377.461 375.000 C 377.715 376.833,378.844 387.583,379.970 398.889 M379.673 379.167 C 379.408 380.542,379.192 379.417,379.192 376.667 C 379.192 373.917,379.408 372.792,379.673 374.167 C 379.938 375.542,379.938 377.792,379.673 379.167 M380.784 389.167 C 380.519 390.542,380.303 389.417,380.303 386.667 C 380.303 383.917,380.519 382.792,380.784 384.167 C 381.049 385.542,381.049 387.792,380.784 389.167 M384.119 415.820 C 383.853 417.203,383.626 416.333,383.614 413.889 C 383.601 411.444,383.819 410.314,384.097 411.376 C 384.375 412.438,384.385 414.438,384.119 415.820 " stroke="none" fill="#000000" fill-rule="evenodd"></path></g></svg>