<svg id="svg" xmlns="http://www.w3.org/2000/svg" xmlns:xlink="http://www.w3.org/1999/xlink" width="400" height="400" viewBox="0, 0, 400,400"><g id="svgg"><path id="path0" d="M0.000 200.000 L 0.000 400.000 200.000 400.000 L 400.000 400.000 400.000 200.000 L 400.000 0.000 200.000 0.000 L 0.000 0.000 0.000 200.000 M211.640 86.415 C 234.834 87.988,256.602 93.145,276.685 101.827 C 281.786 104.032,283.707 105.917,284.567 109.565 C 285.306 112.701,284.890 114.634,282.289 120.146 C 279.495 126.069,278.955 126.629,275.905 126.772 L 274.298 126.848 271.559 125.688 C 251.247 117.083,232.996 112.671,210.406 110.901 C 206.494 110.595,190.525 110.591,186.596 110.896 C 164.711 112.591,146.602 116.790,127.339 124.636 L 124.078 125.964 122.480 125.894 C 119.574 125.767,118.933 125.150,116.654 120.284 C 113.567 113.690,113.379 111.279,115.647 107.419 C 117.138 104.881,118.428 104.041,125.220 101.185 C 147.674 91.744,166.988 87.468,193.034 86.172 C 195.397 86.054,208.925 86.231,211.640 86.415 M193.034 86.348 C 167.003 87.644,147.639 91.929,125.254 101.349 C 118.733 104.093,117.658 104.771,116.068 107.149 C 113.606 110.829,113.700 113.469,116.509 119.616 C 119.605 126.391,121.037 127.026,127.386 124.441 C 146.598 116.615,164.732 112.413,186.596 110.719 C 190.525 110.415,206.494 110.419,210.406 110.725 C 232.976 112.493,251.251 116.909,271.512 125.491 C 277.330 127.956,278.718 127.260,282.079 120.194 C 284.308 115.508,284.651 114.438,284.651 112.169 C 284.651 107.220,282.490 104.499,276.517 101.928 C 256.420 93.278,234.767 88.160,211.640 86.591 C 208.925 86.407,195.397 86.230,193.034 86.348 M206.526 117.991 C 227.519 119.060,247.364 123.762,266.559 132.218 C 271.569 134.424,271.655 133.117,265.673 145.735 C 263.089 151.185,260.713 156.214,260.392 156.910 L 259.808 158.177 260.922 158.698 C 263.394 159.855,265.766 161.797,267.135 163.785 C 267.925 164.932,267.916 164.939,268.804 162.415 C 269.892 159.323,271.279 157.564,273.433 156.544 C 275.907 155.374,280.935 155.260,284.790 156.287 C 285.541 156.487,286.314 156.686,286.508 156.728 C 286.783 156.789,287.015 156.564,287.566 155.702 C 292.430 148.089,299.870 144.879,307.094 147.275 C 313.459 149.387,319.738 155.308,320.055 159.498 L 320.157 160.845 321.528 157.413 C 323.597 152.234,324.148 151.429,326.408 150.288 C 328.988 148.986,330.637 149.153,334.450 151.101 C 338.702 153.273,339.773 154.737,339.768 158.373 L 339.766 160.406 337.241 166.843 C 333.812 175.585,331.686 180.814,329.873 184.962 C 329.035 186.879,327.756 189.837,327.029 191.534 C 320.424 206.971,314.807 212.354,305.732 211.941 C 300.371 211.697,295.362 208.921,292.389 204.545 C 291.583 203.358,290.118 200.412,290.136 200.013 C 290.143 199.860,290.251 200.014,290.377 200.355 C 293.209 208.037,301.277 212.889,309.167 211.655 C 316.018 210.583,321.258 204.622,326.854 191.534 C 327.580 189.837,328.859 186.879,329.697 184.962 C 331.509 180.814,333.635 175.585,337.065 166.843 L 339.590 160.406 339.592 158.377 C 339.596 154.852,338.486 153.348,334.297 151.202 C 329.464 148.727,325.743 149.408,323.537 153.173 C 323.042 154.017,320.459 160.388,320.459 160.764 C 320.459 160.907,320.340 161.023,320.194 161.023 C 319.994 161.023,319.929 160.808,319.929 160.150 C 319.929 157.431,318.214 154.855,314.176 151.509 C 304.778 143.723,294.749 145.377,287.667 155.881 C 287.054 156.791,286.842 156.984,286.534 156.914 C 286.326 156.866,285.541 156.664,284.790 156.464 C 282.021 155.726,277.581 155.556,275.174 156.095 C 272.533 156.687,270.152 159.001,269.143 161.957 C 268.062 165.123,267.888 165.348,267.293 164.341 C 266.291 162.646,263.526 160.238,261.153 158.994 C 260.275 158.534,259.722 158.139,259.757 157.996 C 259.788 157.866,262.149 152.826,265.004 146.794 C 271.483 133.105,271.302 134.510,266.843 132.519 C 224.370 113.556,175.858 113.153,132.400 131.400 C 128.875 132.880,128.042 133.431,128.042 134.286 C 128.042 134.516,133.283 146.121,139.689 160.077 C 147.451 176.987,151.303 185.567,151.238 185.802 C 151.185 185.996,150.910 186.422,150.629 186.749 L 150.116 187.343 148.986 187.146 C 142.266 185.976,136.986 190.168,135.350 197.972 C 135.127 199.039,134.940 199.713,134.936 199.471 C 134.924 198.762,135.555 196.135,136.058 194.801 C 138.229 189.048,143.353 185.931,148.941 186.964 L 149.975 187.155 150.562 186.479 C 151.343 185.578,152.427 188.170,139.441 159.900 C 133.075 146.041,127.866 134.533,127.867 134.327 C 127.868 133.285,128.357 132.944,132.157 131.337 C 155.686 121.385,181.653 116.726,206.526 117.991 M164.771 136.839 C 170.482 138.843,173.627 144.331,172.217 149.831 C 171.500 152.628,170.616 152.693,167.482 150.180 C 166.329 149.257,165.255 148.501,165.093 148.501 C 164.766 148.501,163.587 149.672,162.963 150.617 C 162.090 151.940,161.280 152.035,159.683 151.001 C 157.010 149.271,156.761 148.224,158.560 146.290 C 160.220 144.505,160.159 144.255,157.549 142.145 C 155.124 140.183,154.818 139.695,155.433 138.773 C 156.755 136.792,161.712 135.765,164.771 136.839 M159.397 136.770 C 157.609 137.225,155.418 138.537,155.358 139.189 C 155.286 139.976,155.615 140.352,158.054 142.280 C 160.381 144.119,160.428 144.666,158.442 146.768 C 157.239 148.040,157.222 148.400,158.307 149.559 C 160.286 151.675,161.716 152.041,162.658 150.672 C 164.658 147.765,164.803 147.752,167.844 150.184 C 171.108 152.793,172.032 152.293,172.259 147.793 C 172.611 140.799,165.963 135.101,159.397 136.770 M232.182 137.281 C 241.644 140.715,239.382 154.481,229.353 154.495 C 223.657 154.504,219.322 149.057,220.729 143.658 C 222.052 138.577,227.459 135.567,232.182 137.281 M227.762 137.112 C 222.894 138.217,219.608 143.352,220.916 147.807 C 223.607 156.969,236.699 156.251,237.952 146.873 C 238.729 141.058,233.298 135.856,227.762 137.112 M197.076 153.798 C 199.868 155.173,200.794 157.000,200.646 160.847 C 200.429 166.471,199.474 170.691,194.894 186.243 C 194.234 188.484,193.524 191.468,193.026 194.092 C 192.584 196.420,191.631 201.386,190.909 205.127 C 190.186 208.868,189.594 211.997,189.594 212.079 C 189.594 212.161,189.550 212.184,189.496 212.130 C 189.442 212.076,189.994 208.948,190.722 205.178 C 191.450 201.409,192.408 196.420,192.850 194.092 C 193.348 191.468,194.058 188.484,194.718 186.243 C 199.271 170.779,200.237 166.528,200.474 160.922 C 200.670 156.279,198.383 153.366,194.533 153.355 C 191.100 153.345,190.212 154.853,188.616 163.404 C 181.864 199.571,173.727 225.121,166.759 232.025 C 164.240 234.522,162.766 234.788,161.885 232.905 C 160.690 230.351,160.767 228.287,162.517 215.961 C 165.196 197.099,165.839 195.539,171.985 192.980 C 172.891 192.603,174.168 192.075,174.822 191.807 C 176.277 191.211,177.334 190.235,177.601 189.243 C 177.829 188.396,177.769 186.668,177.513 186.720 C 177.416 186.740,175.829 187.309,173.986 187.985 C 172.143 188.662,170.397 189.263,170.106 189.323 C 169.815 189.382,170.648 189.042,171.958 188.568 C 173.267 188.094,175.069 187.429,175.961 187.091 C 177.961 186.333,178.027 186.365,177.919 188.046 C 177.770 190.372,177.040 191.156,173.907 192.356 C 165.926 195.412,165.479 196.353,162.694 215.961 C 160.953 228.220,160.865 230.464,162.036 232.804 C 162.927 234.584,164.080 234.341,166.595 231.842 C 169.428 229.027,171.220 225.743,174.297 217.725 C 179.943 203.010,183.864 187.951,188.438 163.404 C 189.478 157.819,189.835 156.513,190.686 155.164 C 191.985 153.106,194.555 152.557,197.076 153.798 M304.245 154.779 C 307.410 155.710,311.375 158.765,312.072 160.810 C 312.500 162.068,312.421 162.667,311.203 167.416 C 306.106 187.285,305.158 196.473,308.202 196.473 C 311.483 196.473,315.557 190.050,323.194 172.840 C 325.160 168.408,328.819 159.800,329.285 158.510 C 329.580 157.694,329.539 157.692,331.137 158.570 C 332.668 159.410,332.631 159.254,331.816 161.487 C 331.467 162.444,330.320 165.737,329.267 168.804 C 321.132 192.494,316.370 201.474,310.199 204.764 C 304.795 207.644,297.766 203.898,296.462 197.443 C 296.094 195.618,296.501 188.292,297.360 181.305 C 297.720 178.368,298.875 170.480,299.063 169.665 C 299.212 169.019,298.251 169.957,296.355 172.310 C 291.040 178.906,287.087 186.662,281.208 202.028 C 278.054 210.273,277.675 210.731,274.659 209.951 C 270.594 208.900,269.564 206.344,270.289 199.104 C 270.888 193.125,273.604 177.253,274.256 175.926 L 274.429 175.573 274.348 175.926 C 271.393 188.817,269.526 203.888,270.594 206.221 C 272.238 209.812,276.485 211.134,278.339 208.631 C 278.514 208.395,279.768 205.311,281.124 201.780 C 287.511 185.154,292.252 176.226,297.977 170.042 C 299.503 168.394,299.461 168.066,298.522 174.250 C 296.933 184.724,296.112 194.841,296.640 197.443 C 297.903 203.669,304.929 207.445,310.056 204.655 C 316.254 201.282,321.022 192.300,329.090 168.804 C 330.143 165.737,331.291 162.444,331.640 161.487 C 331.989 160.530,332.275 159.657,332.274 159.547 C 332.274 159.394,330.660 158.426,329.795 158.061 C 329.728 158.033,329.472 158.509,329.227 159.120 C 323.644 173.018,317.102 186.844,313.597 192.149 C 309.510 198.337,305.846 198.297,306.245 192.070 C 306.580 186.826,308.232 178.311,311.027 167.416 C 312.689 160.937,312.579 160.418,308.923 157.509 C 299.811 150.258,293.874 155.876,284.566 180.558 C 283.422 183.591,282.457 186.043,282.421 186.007 C 282.337 185.923,286.225 175.631,287.561 172.399 C 293.245 158.650,298.509 153.092,304.245 154.779 M282.892 163.932 C 286.132 164.919,286.304 165.455,285.106 170.823 C 284.469 173.674,283.168 180.094,281.985 186.213 C 281.885 186.730,281.772 187.121,281.733 187.082 C 281.593 186.943,283.901 175.330,285.259 169.333 C 286.053 165.830,285.711 165.011,283.113 164.187 C 281.353 163.628,276.962 163.466,276.776 163.953 C 276.706 164.136,276.519 164.405,276.361 164.550 C 276.203 164.696,275.812 165.529,275.493 166.402 C 273.119 172.890,269.035 178.774,264.307 182.516 C 262.994 183.555,262.298 183.817,262.384 183.239 C 264.442 169.515,260.928 163.314,252.047 164.998 C 240.658 167.159,233.186 176.184,230.515 191.005 C 229.567 196.268,222.495 211.633,219.106 215.793 C 216.755 218.679,214.479 218.520,214.162 215.446 C 213.815 212.089,216.015 199.573,219.239 186.554 C 220.622 180.969,220.374 180.092,216.821 177.981 C 208.107 172.804,201.498 179.565,193.655 201.675 C 190.828 209.645,189.899 212.180,189.831 212.112 C 189.793 212.074,190.000 211.395,190.292 210.603 C 190.584 209.811,191.626 206.883,192.608 204.097 C 199.298 185.103,203.557 178.246,209.780 176.448 C 212.974 175.525,218.600 177.788,219.865 180.504 C 220.458 181.777,220.397 182.588,219.415 186.554 C 216.125 199.839,213.897 212.668,214.353 215.705 C 214.758 218.407,216.686 218.341,219.014 215.544 C 222.376 211.504,229.380 196.328,230.339 191.005 C 232.394 179.600,237.743 170.806,244.709 167.382 C 254.699 162.470,261.195 164.081,262.810 171.870 C 263.229 173.896,263.189 179.460,262.735 182.055 C 262.447 183.702,262.476 183.709,264.090 182.417 C 268.935 178.538,272.931 172.826,275.368 166.296 C 275.716 165.364,276.222 164.344,276.492 164.030 L 276.984 163.457 279.453 163.547 C 281.017 163.604,282.278 163.745,282.892 163.932 M167.779 169.575 C 169.713 170.079,171.491 171.237,172.080 172.376 C 172.871 173.906,171.523 182.803,169.605 188.713 C 169.213 189.919,169.264 189.319,169.672 187.918 C 171.105 183.000,171.928 178.620,172.081 175.108 L 172.185 172.702 171.345 171.804 C 168.197 168.438,163.385 168.878,161.645 172.690 C 161.256 173.540,158.436 187.756,157.758 192.278 C 157.597 193.354,157.637 193.329,154.850 194.089 C 153.002 194.592,152.376 194.840,152.052 195.197 L 151.635 195.657 150.777 195.175 C 146.033 192.508,143.621 194.086,142.323 200.705 C 142.047 202.112,141.616 203.937,141.365 204.762 C 141.114 205.586,140.270 208.642,139.491 211.552 C 133.731 233.049,129.897 241.230,124.281 244.005 C 119.050 246.591,119.859 237.117,127.322 208.380 C 128.002 205.762,128.491 203.553,128.409 203.471 C 127.064 202.126,122.132 201.835,118.757 202.901 C 116.964 203.467,117.024 203.385,116.404 206.134 C 113.130 220.654,110.454 243.055,111.542 246.826 C 112.854 251.369,118.168 254.527,122.421 253.290 C 126.676 252.053,131.353 244.318,136.409 230.159 C 137.579 226.883,138.036 225.731,137.810 226.631 C 137.160 229.216,133.413 238.660,131.476 242.593 C 126.382 252.934,122.175 255.649,116.041 252.553 C 112.302 250.666,110.998 247.909,111.164 242.240 C 111.424 233.291,114.559 211.699,116.673 204.289 C 117.371 201.843,125.236 201.204,128.540 203.326 C 128.725 203.445,128.465 204.666,127.270 209.277 C 122.737 226.776,121.164 234.960,121.164 241.051 C 121.164 245.148,123.176 245.423,126.798 241.820 C 131.473 237.168,134.251 230.451,139.314 211.552 C 140.094 208.642,140.937 205.586,141.188 204.762 C 141.440 203.937,141.871 202.112,142.147 200.705 C 143.472 193.949,145.963 192.295,150.769 194.981 L 151.573 195.431 151.854 195.059 C 152.056 194.791,152.873 194.479,154.770 193.945 L 157.405 193.203 157.561 192.325 C 159.567 180.991,161.068 173.555,161.560 172.501 C 162.799 169.848,164.947 168.838,167.779 169.575 M254.984 172.579 C 257.413 173.300,258.490 177.049,258.034 183.197 C 257.779 186.620,257.816 186.517,256.729 186.896 C 251.884 188.586,248.148 185.140,247.673 178.541 L 247.569 177.100 248.199 176.242 C 249.792 174.072,251.798 172.714,253.980 172.328 C 254.035 172.318,254.487 172.431,254.984 172.579 M253.216 172.679 C 251.695 173.037,249.463 174.773,248.222 176.563 C 246.819 178.588,249.019 185.009,251.644 186.552 C 253.006 187.353,257.014 187.143,257.494 186.246 C 258.063 185.183,258.050 177.994,257.476 175.926 C 256.937 173.987,255.182 172.275,253.968 172.505 C 253.920 172.515,253.581 172.593,253.216 172.679 M103.027 173.794 C 112.272 175.569,118.098 182.925,119.151 194.153 C 119.272 195.436,119.277 195.448,119.737 195.356 C 125.117 194.280,134.744 197.191,134.744 199.893 C 134.744 199.990,134.511 199.756,134.226 199.373 C 132.237 196.702,126.032 194.816,121.082 195.378 C 118.975 195.617,119.120 195.703,118.974 194.140 C 118.751 191.761,118.363 189.515,117.904 187.936 C 114.283 175.503,99.545 169.394,91.408 176.955 L 90.842 177.482 89.292 176.768 C 81.219 173.050,72.952 176.229,70.474 184.006 C 70.009 185.465,65.693 206.977,63.939 216.578 C 60.442 235.723,58.996 251.728,60.307 256.790 C 62.253 264.304,67.923 268.166,74.919 266.743 C 79.657 265.779,80.292 264.736,82.193 254.817 C 84.499 242.780,85.293 238.810,85.420 238.684 C 85.486 238.618,86.075 238.665,86.729 238.788 C 90.027 239.409,94.615 239.147,97.770 238.155 C 100.185 237.397,101.109 236.970,103.815 235.361 L 104.321 235.060 103.792 235.518 C 100.790 238.114,93.232 239.841,88.002 239.125 C 87.180 239.013,86.272 238.914,85.984 238.905 L 85.459 238.889 84.613 243.210 C 84.147 245.586,83.137 250.817,82.367 254.833 C 80.431 264.931,79.816 265.929,74.919 266.921 C 66.574 268.610,60.034 262.679,59.655 253.079 C 59.270 243.331,61.374 228.243,67.279 198.413 C 70.398 182.655,70.516 182.240,72.702 179.401 C 76.146 174.927,83.683 173.744,89.636 176.742 L 90.648 177.251 91.752 176.354 C 94.802 173.876,98.767 172.975,103.027 173.794 M273.364 176.726 C 270.489 181.002,267.041 184.655,262.766 187.954 L 261.071 189.263 260.584 191.148 C 258.961 197.443,256.297 204.084,253.582 208.602 C 247.356 218.963,237.898 222.556,233.248 216.325 C 231.985 214.633,229.929 209.792,230.003 208.684 C 230.019 208.439,230.041 208.448,230.109 208.730 C 232.330 217.846,237.129 221.163,243.651 218.090 C 250.746 214.746,256.432 205.685,260.295 191.564 C 260.841 189.569,261.074 188.974,261.402 188.745 C 265.369 185.969,270.548 180.627,273.253 176.520 C 273.753 175.761,274.224 175.138,274.299 175.136 C 274.374 175.134,273.954 175.850,273.364 176.726 M102.028 180.334 C 107.293 181.433,110.969 185.829,111.901 192.143 C 113.973 206.178,108.500 223.338,100.173 228.907 C 94.720 232.555,87.170 232.364,81.393 228.431 C 80.811 228.035,80.286 227.765,80.226 227.832 C 80.166 227.899,78.792 234.660,77.172 242.857 C 73.961 259.109,74.077 258.626,73.294 259.103 C 71.232 260.361,68.604 258.689,67.423 255.369 C 65.827 250.885,67.878 232.966,72.740 208.907 C 77.766 184.038,77.574 184.857,78.756 183.307 C 80.686 180.776,86.756 181.362,88.794 184.276 L 89.330 185.043 89.327 187.775 C 89.324 190.278,89.347 190.474,89.591 190.102 C 95.186 181.598,97.893 179.471,102.028 180.334 M98.778 180.452 C 96.936 180.981,93.868 184.164,90.779 188.750 C 89.122 191.209,89.135 191.216,89.145 187.849 L 89.153 185.045 88.612 184.366 C 86.317 181.488,81.125 180.954,78.998 183.376 C 77.752 184.796,78.000 183.752,72.917 208.907 C 68.067 232.905,66.004 250.888,67.590 255.344 C 68.753 258.611,71.643 260.323,73.378 258.773 L 73.922 258.287 76.902 243.297 C 80.273 226.340,80.025 227.513,80.239 227.513 C 80.328 227.513,81.044 227.944,81.829 228.469 C 90.011 233.946,99.732 231.688,105.541 222.962 C 112.060 213.170,114.312 193.976,109.839 186.332 C 107.480 182.300,102.171 179.478,98.778 180.452 M243.337 189.462 C 244.890 192.819,249.985 193.707,255.820 191.637 C 256.014 191.568,255.964 191.634,255.708 191.783 C 254.482 192.497,252.548 192.855,249.903 192.856 L 247.336 192.857 245.973 192.183 C 244.676 191.543,243.864 190.779,243.104 189.489 C 242.745 188.878,241.745 194.282,241.412 198.634 C 240.673 208.282,243.644 211.357,248.788 206.268 C 251.550 203.535,253.706 199.640,255.556 194.042 C 255.918 192.947,256.269 191.997,256.335 191.931 C 256.402 191.864,256.418 191.926,256.372 192.069 C 256.326 192.211,256.073 193.003,255.810 193.827 C 252.992 202.647,248.318 208.818,244.456 208.818 C 240.937 208.818,240.105 201.685,242.362 190.873 C 242.742 189.052,242.985 188.701,243.337 189.462 M99.130 189.689 C 103.819 192.113,101.881 210.352,95.996 219.198 C 92.699 224.152,87.558 225.797,84.508 222.875 C 83.024 221.452,83.007 221.166,84.144 216.880 C 88.420 200.761,92.447 192.337,96.997 189.991 C 98.266 189.337,98.411 189.317,99.130 189.689 M97.181 190.079 C 92.499 192.470,88.180 201.720,83.860 218.610 C 83.268 220.928,83.313 221.225,84.443 222.440 C 87.281 225.493,91.868 224.378,95.319 219.797 C 101.071 212.163,103.672 194.618,99.668 190.463 C 98.699 189.458,98.468 189.422,97.181 190.079 M207.228 191.765 C 207.226 191.916,207.185 191.912,207.083 191.751 C 206.999 191.618,206.940 191.872,206.940 192.368 C 206.939 192.831,206.648 195.154,206.293 197.531 C 204.542 209.262,203.902 219.184,204.733 221.720 C 206.518 227.163,212.618 229.076,217.646 225.769 C 221.486 223.244,225.470 217.583,228.766 209.969 C 229.227 208.904,229.709 208.005,229.837 207.971 C 229.989 207.931,230.005 207.961,229.884 208.055 C 229.782 208.135,229.395 208.915,229.026 209.788 C 225.643 217.771,221.295 223.894,217.403 226.151 C 211.583 229.528,205.281 226.704,204.242 220.254 C 203.802 217.523,204.804 205.941,206.365 195.704 C 206.659 193.778,206.863 192.166,206.819 192.121 C 206.681 191.984,204.529 194.861,202.773 197.531 C 197.845 205.025,194.468 212.429,188.173 229.541 C 185.718 236.215,185.341 236.688,182.341 236.832 C 177.825 237.048,177.614 234.953,180.337 216.931 C 181.278 210.703,181.308 210.526,181.400 210.618 C 181.440 210.658,181.114 213.027,180.676 215.883 C 178.536 229.842,178.250 234.257,179.395 235.712 C 180.514 237.134,183.778 237.039,185.280 235.540 C 186.088 234.732,186.005 234.928,188.951 226.984 C 195.363 209.693,199.571 201.129,205.518 193.264 C 206.817 191.546,207.236 191.179,207.228 191.765 M156.437 199.568 C 156.437 199.719,156.044 202.040,155.564 204.727 C 152.048 224.384,151.060 234.425,152.298 237.932 C 153.963 242.652,159.992 245.014,164.153 242.576 C 169.270 239.578,173.048 232.797,179.051 215.839 C 181.048 210.198,181.453 209.265,181.623 209.907 C 181.668 210.078,181.644 210.085,181.536 209.933 C 181.444 209.804,180.594 211.975,179.292 215.665 C 171.376 238.093,166.131 245.132,158.518 243.544 C 153.497 242.497,151.279 238.721,151.677 231.897 C 152.106 224.545,152.816 219.293,155.224 205.675 C 155.813 202.346,156.256 199.584,156.210 199.537 C 155.965 199.293,152.862 200.091,152.719 200.435 C 152.638 200.632,151.533 206.468,150.264 213.404 C 144.957 242.403,137.515 281.778,137.186 282.592 C 136.766 283.635,135.207 283.847,133.690 283.069 C 131.836 282.118,130.715 279.276,131.046 276.367 C 132.055 267.514,133.431 257.486,136.165 239.067 C 137.130 232.569,137.919 227.178,137.919 227.089 C 137.919 226.999,137.962 226.969,138.016 227.022 C 138.069 227.075,137.239 233.021,136.171 240.235 C 133.419 258.832,132.235 267.478,131.223 276.367 C 130.952 278.741,131.515 280.722,132.867 282.158 C 134.269 283.646,136.466 283.819,137.045 282.486 C 137.338 281.813,145.132 240.513,150.083 213.404 C 151.349 206.468,152.486 200.597,152.608 200.357 C 152.944 199.699,156.437 198.979,156.437 199.568 M290.123 199.481 C 290.123 199.584,290.061 199.630,289.985 199.583 C 289.909 199.535,288.865 202.130,287.665 205.348 C 283.757 215.832,283.224 216.433,277.601 216.696 C 269.892 217.058,262.808 210.982,262.986 204.161 C 263.007 203.358,263.025 203.403,263.151 204.586 C 263.921 211.797,270.147 216.908,277.690 216.522 C 281.252 216.340,283.410 215.166,284.625 212.750 C 285.045 211.914,289.594 199.787,289.594 199.503 C 289.594 199.388,289.713 199.295,289.859 199.295 C 290.004 199.295,290.123 199.379,290.123 199.481 M263.303 202.788 C 263.293 203.031,263.263 203.021,263.139 202.734 C 263.018 202.450,262.985 202.439,262.975 202.676 C 262.937 203.592,259.481 210.940,257.723 213.842 C 252.224 222.922,243.856 227.522,235.903 225.837 C 235.230 225.695,234.663 225.597,234.642 225.620 C 234.442 225.836,234.165 234.903,234.065 244.533 L 233.941 256.349 233.470 257.252 C 232.485 259.136,231.070 259.862,228.590 259.753 C 225.410 259.614,223.825 258.019,223.545 254.674 C 223.231 250.923,220.289 248.888,217.319 250.368 C 215.896 251.077,215.430 251.798,212.802 257.344 C 207.444 268.653,205.967 273.307,204.752 282.716 C 204.641 283.568,204.498 289.505,204.419 296.473 C 204.297 307.174,204.243 308.831,203.990 309.524 C 202.363 313.976,196.114 314.818,193.186 310.979 C 191.837 309.211,191.897 309.959,191.836 294.222 C 191.773 277.890,191.668 276.734,189.680 270.370 C 187.706 264.048,186.195 262.192,184.313 263.776 C 183.337 264.597,183.340 264.579,183.245 270.635 L 183.157 276.279 182.688 277.160 C 180.703 280.897,175.412 280.807,173.462 277.002 L 172.761 275.636 172.817 260.534 L 172.873 245.432 172.346 245.864 C 172.057 246.102,171.355 246.678,170.787 247.144 C 165.728 251.292,158.798 251.988,152.924 248.938 C 152.101 248.511,151.414 248.178,151.399 248.199 C 151.383 248.219,150.679 252.006,149.834 256.614 C 144.274 286.952,144.337 286.665,142.786 288.324 C 139.266 292.086,130.992 291.324,127.309 286.898 C 123.684 282.543,123.453 280.030,125.306 265.128 C 125.977 259.730,126.017 260.202,124.923 260.557 C 116.755 263.209,107.415 258.026,104.469 249.206 L 103.968 247.707 103.995 242.945 C 104.010 240.326,104.102 237.549,104.199 236.772 C 104.352 235.553,104.360 235.685,104.260 237.743 C 103.979 243.529,104.118 247.568,104.655 249.206 C 107.490 257.862,116.735 262.933,124.998 260.365 C 126.212 259.988,126.171 259.594,125.489 265.088 C 123.757 279.042,123.787 280.333,125.945 284.480 C 129.685 291.666,141.052 292.847,143.926 286.348 C 144.253 285.610,146.403 274.434,149.750 256.085 C 150.555 251.671,151.238 248.026,151.269 247.985 C 151.300 247.944,152.019 248.276,152.867 248.723 C 159.173 252.046,165.965 251.120,171.601 246.167 C 172.234 245.611,172.816 245.155,172.895 245.153 C 172.975 245.151,173.018 252.004,172.991 260.380 L 172.943 275.611 173.523 276.790 C 175.394 280.590,180.610 280.706,182.599 276.992 C 182.961 276.315,182.985 275.995,183.069 270.635 C 183.167 264.379,183.201 264.189,184.356 263.485 C 186.378 262.252,187.491 263.483,189.426 269.093 C 191.786 275.935,191.947 277.505,192.012 294.222 C 192.076 310.657,191.934 309.425,193.999 311.494 C 196.911 314.410,201.867 313.599,203.629 309.916 C 204.110 308.912,204.212 306.622,204.224 296.561 C 204.245 277.830,205.332 272.722,212.515 257.584 C 215.561 251.163,215.652 251.020,217.133 250.280 C 220.321 248.686,223.387 250.689,223.713 254.578 C 223.997 257.965,225.715 259.609,228.974 259.611 C 230.574 259.612,231.244 259.376,232.268 258.451 C 233.854 257.018,233.749 257.925,233.892 244.444 C 234.008 233.471,234.286 225.397,234.549 225.397 C 234.608 225.397,235.212 225.514,235.891 225.658 C 243.859 227.346,252.103 222.751,257.722 213.490 C 259.348 210.808,262.149 204.868,262.861 202.590 C 262.980 202.209,263.321 202.362,263.303 202.788 " stroke="none" fill="#000000" fill-rule="evenodd"></path></g></svg>