<svg id="svg" xmlns="http://www.w3.org/2000/svg" xmlns:xlink="http://www.w3.org/1999/xlink" width="400" height="533.3333333333334" viewBox="0, 0, 400,533.3333333333334"><g id="svgg"><path id="path0" d="M0.000 266.667 L 0.000 533.333 200.000 533.333 L 400.000 533.333 400.000 266.667 L 400.000 0.000 200.000 0.000 L 0.000 0.000 0.000 266.667 M232.222 117.718 C 251.544 122.588,277.861 134.152,282.213 139.685 C 287.226 146.058,282.946 167.902,276.535 168.665 C 274.877 168.862,269.224 166.731,262.571 163.400 C 220.988 142.583,177.073 142.389,134.773 162.835 C 121.204 169.393,119.839 169.327,116.613 161.944 C 109.205 144.995,114.901 137.585,145.000 125.015 C 170.313 114.444,207.042 111.371,232.222 117.718 M176.111 117.108 C 153.334 121.455,126.313 132.667,118.333 141.080 C 114.172 145.468,113.859 153.222,117.514 161.389 C 120.472 168.000,121.289 168.017,134.573 161.740 C 177.976 141.234,220.411 141.426,262.767 162.321 C 275.912 168.805,277.525 168.846,280.487 162.763 C 284.712 154.090,284.283 143.286,279.550 139.130 C 260.505 122.409,207.480 111.120,176.111 117.108 M222.378 158.808 C 243.079 163.070,269.139 174.759,269.770 180.065 C 269.950 181.570,267.906 188.866,265.230 196.277 L 260.363 209.752 264.709 214.321 C 267.100 216.833,268.577 218.889,267.991 218.889 C 267.405 218.889,265.161 216.936,263.006 214.550 L 259.086 210.212 263.987 196.640 C 270.632 178.243,270.824 179.184,259.167 173.089 C 227.539 156.553,194.979 153.333,160.894 163.371 C 150.803 166.343,130.124 176.161,129.271 178.385 C 128.922 179.294,133.701 194.904,139.892 213.074 C 152.562 250.265,152.482 249.890,147.738 249.755 C 143.589 249.637,138.367 254.293,136.582 259.702 C 135.895 261.781,135.092 263.240,134.796 262.945 C 132.006 260.155,142.027 248.611,147.239 248.611 C 151.053 248.611,151.284 249.587,138.889 213.333 C 125.216 173.343,125.065 177.981,140.278 170.657 C 167.687 157.460,195.992 153.375,222.378 158.808 M167.976 184.298 C 171.176 187.157,171.591 188.242,172.012 194.853 C 172.523 202.876,170.965 204.445,166.500 200.404 C 164.640 198.721,164.439 198.721,163.793 200.404 C 162.836 202.899,159.219 202.693,157.812 200.063 C 156.995 198.538,157.036 197.073,157.949 195.068 C 158.992 192.780,158.918 191.854,157.568 190.282 C 154.492 186.701,154.349 185.651,156.626 183.374 C 159.776 180.224,163.782 180.550,167.976 184.298 M236.634 186.605 C 238.398 189.902,238.030 200.256,236.048 203.086 C 231.195 210.015,220.015 204.148,220.004 194.667 C 219.991 183.387,231.838 177.644,236.634 186.605 M157.476 184.112 C 155.697 185.890,155.730 186.153,158.023 188.594 C 160.191 190.902,160.312 191.576,159.123 194.725 C 157.394 199.305,160.143 203.154,162.690 199.722 C 164.460 197.339,165.962 197.257,167.778 199.444 C 170.185 202.345,171.111 201.276,171.111 195.594 C 171.111 186.116,162.621 178.966,157.476 184.112 M224.972 185.917 C 218.088 192.801,220.842 204.444,229.353 204.444 C 239.208 204.444,239.878 188.322,230.250 182.860 C 229.381 182.367,227.340 183.549,224.972 185.917 M311.112 198.202 C 313.271 199.631,316.018 202.620,317.216 204.845 C 319.913 209.851,320.665 209.885,322.669 205.089 C 325.623 198.018,330.671 197.116,336.222 202.667 C 340.998 207.443,341.037 209.977,336.572 225.390 C 322.782 272.992,317.943 282.227,306.795 282.218 C 299.442 282.212,288.279 273.573,291.483 270.369 C 291.778 270.074,292.339 270.839,292.729 272.070 C 296.930 285.304,313.761 283.733,320.856 269.444 C 325.327 260.441,338.889 215.772,338.889 210.049 C 338.889 198.400,324.464 197.724,322.588 209.285 C 321.814 214.055,319.438 214.636,318.531 210.278 C 315.332 194.888,296.471 191.969,289.339 205.760 C 287.696 208.936,287.471 209.010,281.670 208.286 C 275.386 207.501,273.276 208.645,269.179 215.065 C 268.422 216.252,268.626 215.375,269.633 213.117 C 271.879 208.081,275.835 206.246,282.382 207.202 C 287.109 207.893,287.274 207.811,289.444 203.705 C 294.067 194.959,302.844 192.730,311.112 198.202 M198.384 206.061 C 202.261 209.938,201.786 218.041,196.167 243.889 C 194.705 250.611,193.003 259.111,192.383 262.778 L 191.256 269.444 191.871 262.222 C 192.208 258.250,193.681 249.750,195.144 243.333 C 200.068 221.728,200.887 210.532,197.787 207.232 C 192.637 201.750,190.479 205.479,187.711 224.642 C 180.326 275.763,170.404 312.222,163.878 312.222 C 160.529 312.222,159.743 306.850,161.113 293.333 C 163.968 265.176,165.544 260.073,172.480 256.535 C 177.712 253.866,178.661 249.344,173.611 251.145 C 170.752 252.165,170.694 252.128,172.712 250.562 C 175.882 248.103,177.778 248.511,177.778 251.653 C 177.778 253.666,176.579 255.174,173.365 257.202 C 166.195 261.728,165.394 264.103,162.724 288.746 C 160.457 309.670,161.460 314.700,166.599 308.167 C 172.390 300.805,183.367 253.724,187.284 219.444 C 188.893 205.364,192.880 200.557,198.384 206.061 M306.689 207.234 C 312.911 210.451,313.352 213.593,310.002 230.843 C 302.114 271.473,308.729 271.448,322.261 230.797 C 328.122 213.189,332.222 205.805,332.222 212.856 C 332.222 218.647,320.708 257.542,316.621 265.556 C 310.884 276.806,302.395 277.791,297.235 267.804 C 295.052 263.581,295.424 239.886,297.785 232.778 C 298.884 229.466,298.888 229.469,298.302 233.333 C 291.858 275.853,307.911 289.891,320.476 252.726 C 327.226 232.759,332.742 208.412,329.631 212.315 C 329.428 212.569,326.639 220.778,323.433 230.556 C 309.627 272.658,300.661 272.999,308.829 231.111 C 311.956 215.079,311.848 213.040,307.693 209.543 C 301.090 203.987,295.822 208.263,290.080 223.839 C 288.267 228.755,286.758 232.137,286.725 231.353 C 286.593 228.139,293.677 212.090,296.617 208.942 C 300.179 205.129,302.016 204.817,306.689 207.234 M282.056 217.886 C 286.247 219.347,286.550 222.387,283.889 236.291 C 281.937 246.491,281.929 246.618,283.333 244.444 C 284.254 243.020,284.413 243.061,284.427 244.722 C 284.437 245.792,283.694 246.667,282.778 246.667 C 280.738 246.667,280.738 246.950,282.778 236.291 C 285.272 223.260,285.051 220.176,281.532 218.838 C 278.366 217.634,275.556 219.023,275.556 221.791 C 275.556 225.055,269.735 237.612,266.555 241.208 C 262.899 245.343,263.351 244.073,267.980 237.201 C 269.620 234.768,272.042 229.528,273.363 225.556 C 275.301 219.733,276.914 216.916,278.445 216.684 C 278.507 216.674,280.132 217.216,282.056 217.886 M258.913 220.013 C 262.469 221.916,265.104 238.842,262.483 242.945 C 262.034 243.647,261.667 239.824,261.667 234.449 C 261.667 205.894,238.058 219.794,231.027 252.488 C 221.213 298.132,209.041 303.585,216.661 258.923 C 219.450 242.577,219.438 241.283,216.473 238.127 C 210.446 231.711,203.914 237.855,197.597 255.882 C 195.840 260.897,194.715 263.250,195.097 261.111 C 197.293 248.823,206.088 234.444,211.407 234.444 C 219.863 234.444,221.162 239.276,217.861 258.448 C 214.438 278.326,213.773 288.889,215.945 288.889 C 219.287 288.889,226.321 270.029,230.600 249.598 C 235.003 228.572,248.518 214.450,258.913 220.013 M170.520 227.059 C 172.784 228.714,172.405 244.641,169.970 250.178 L 168.826 252.778 169.396 250.000 C 172.309 235.813,171.195 226.667,166.556 226.667 C 163.103 226.667,161.332 231.092,159.503 244.293 C 157.542 258.445,157.558 258.397,154.460 259.207 C 153.228 259.529,152.499 259.339,152.842 258.785 C 153.184 258.231,154.185 257.778,155.066 257.778 C 155.946 257.778,156.667 257.545,156.667 257.260 C 156.667 253.642,160.450 231.224,161.350 229.514 C 163.559 225.313,166.906 224.416,170.520 227.059 M296.290 230.833 C 292.557 236.754,286.285 252.903,282.050 267.500 C 278.541 279.596,278.323 280.000,275.305 280.000 C 269.232 280.000,268.197 275.071,270.377 256.533 C 272.296 240.220,272.229 237.982,269.959 242.405 C 269.226 243.832,266.984 246.750,264.976 248.889 C 262.110 251.943,260.803 254.925,258.886 262.778 C 252.036 290.839,237.229 302.276,231.022 284.302 C 229.889 281.019,228.945 279.241,228.925 280.351 C 228.716 291.999,214.814 306.852,208.211 302.483 C 203.308 299.239,201.714 275.636,205.599 263.811 L 206.669 260.556 206.126 264.236 C 199.873 306.627,216.107 317.947,228.235 279.652 C 229.123 276.849,230.688 278.160,231.539 282.419 C 235.451 301.977,251.123 289.874,257.942 262.029 C 260.019 253.547,261.216 250.860,264.540 247.222 C 266.773 244.778,269.706 240.593,271.057 237.923 C 273.405 233.282,276.614 232.616,274.882 237.130 C 274.283 238.690,273.927 238.782,273.082 237.593 C 272.345 236.556,272.209 236.921,272.629 238.809 C 272.959 240.293,272.412 248.617,271.413 257.308 C 269.709 272.129,269.714 273.287,271.491 275.999 C 274.449 280.514,277.461 279.771,278.926 274.167 C 283.616 256.221,295.442 226.667,297.933 226.667 C 298.474 226.667,297.735 228.542,296.290 230.833 M257.291 232.657 C 258.829 238.785,257.318 249.431,254.861 249.781 C 249.562 250.537,245.225 240.455,248.295 234.518 C 251.285 228.737,256.059 227.749,257.291 232.657 M250.626 233.452 C 246.402 238.472,248.996 248.889,254.470 248.889 C 256.460 248.889,256.667 248.116,256.667 240.692 C 256.667 230.307,254.977 228.282,250.626 233.452 M106.589 232.738 C 113.323 236.220,118.889 246.838,118.889 256.202 C 118.889 259.545,119.141 259.778,122.763 259.778 C 126.938 259.778,133.395 262.962,134.216 265.427 C 134.495 266.262,133.672 265.895,132.389 264.612 C 129.978 262.200,126.164 260.855,121.198 260.665 C 118.604 260.566,118.268 260.020,117.642 254.891 C 115.547 237.730,102.336 226.509,93.737 234.587 C 91.316 236.862,91.050 236.883,86.745 235.161 C 74.604 230.303,71.858 235.610,66.166 274.930 C 57.839 332.455,57.959 347.554,66.794 353.742 C 74.958 359.460,79.172 354.710,81.650 336.997 C 84.130 319.276,84.944 317.778,92.098 317.778 C 95.796 317.778,98.362 317.083,100.303 315.556 C 104.216 312.478,104.106 312.290,104.352 322.485 C 104.733 338.284,110.831 347.224,120.735 346.503 L 126.111 346.111 125.141 358.539 C 123.660 377.505,127.214 386.667,136.054 386.667 C 142.272 386.667,142.897 384.941,146.725 357.209 C 150.834 327.436,149.639 330.726,155.749 332.360 C 161.744 333.964,165.940 333.050,169.658 329.332 C 171.198 327.792,172.662 326.737,172.912 326.987 C 176.047 330.121,162.057 335.449,155.763 333.517 C 150.780 331.987,151.793 328.926,147.814 357.521 C 143.540 388.223,143.717 387.778,135.778 387.778 C 126.666 387.778,122.801 379.031,123.871 360.833 L 124.639 347.778 119.692 347.778 C 109.910 347.778,103.364 338.089,103.344 323.583 L 103.333 315.498 100.055 317.194 C 98.252 318.126,94.491 318.889,91.698 318.889 C 85.416 318.889,85.249 319.232,82.737 337.222 C 80.621 352.386,79.345 355.161,74.032 356.158 C 64.770 357.895,58.889 349.105,58.889 333.523 C 58.889 318.867,66.750 255.775,69.980 244.516 C 72.638 235.247,79.214 230.935,86.225 233.865 C 89.954 235.423,90.421 235.386,93.042 233.324 C 96.366 230.709,102.180 230.458,106.589 232.738 M109.807 247.803 C 114.553 256.939,111.901 286.654,105.180 299.652 C 100.669 308.375,91.365 311.407,83.611 306.679 C 81.625 305.468,80.007 304.845,80.016 305.294 C 80.025 305.743,78.683 315.010,77.033 325.887 L 74.034 345.664 71.184 345.332 C 64.649 344.571,64.498 330.928,70.555 288.333 C 76.693 245.168,76.846 244.505,81.137 242.209 C 85.111 240.082,90.000 244.460,90.000 250.145 C 90.000 251.935,90.805 251.043,92.797 247.046 C 97.680 237.247,104.480 237.549,109.807 247.803 M97.860 241.950 C 96.556 243.016,94.269 246.389,92.779 249.444 C 91.289 252.500,90.046 254.250,90.018 253.333 C 89.972 251.852,89.836 251.852,88.799 253.333 C 87.894 254.627,87.795 254.422,88.361 252.420 C 90.583 244.552,82.466 238.872,78.797 245.727 C 75.228 252.396,65.605 332.438,67.540 339.359 C 68.404 342.451,71.517 345.520,72.644 344.393 C 72.935 344.102,74.559 334.745,76.254 323.599 C 79.487 302.331,79.629 302.006,84.141 305.556 C 97.780 316.284,111.160 295.381,111.087 263.459 C 111.050 247.261,104.464 236.552,97.860 241.950 M101.604 264.208 C 101.463 283.333,95.996 298.063,88.814 298.666 C 82.466 299.199,81.754 296.127,84.958 282.032 C 91.651 252.590,101.769 241.756,101.604 264.208 M95.204 256.627 C 90.214 262.557,82.340 291.623,84.586 295.820 C 89.229 304.496,97.336 292.438,100.069 272.789 C 102.170 257.679,100.102 250.806,95.204 256.627 M245.556 255.000 C 247.127 256.894,251.402 257.184,254.366 255.597 C 256.916 254.233,255.779 261.663,252.200 269.754 C 245.446 285.022,238.758 280.463,240.509 261.782 C 241.317 253.162,242.599 251.438,245.556 255.000 M241.625 261.677 C 239.719 279.474,246.304 282.784,252.211 266.998 C 255.395 258.487,255.215 256.939,251.109 257.541 C 249.168 257.826,246.649 257.294,245.083 256.268 L 242.393 254.505 241.625 261.677 M207.690 258.121 C 207.632 259.002,207.406 258.955,207.017 257.980 C 205.754 254.821,197.104 276.319,190.559 298.889 C 186.069 314.370,185.765 315.014,182.786 315.367 C 178.046 315.927,176.065 307.158,178.813 297.778 C 179.299 296.120,179.590 298.807,179.536 304.444 C 179.445 313.795,179.472 313.889,182.214 313.889 C 184.817 313.889,185.261 312.949,189.563 298.333 C 197.708 270.663,208.436 246.864,207.690 258.121 M149.354 258.452 C 150.320 258.823,151.111 259.673,151.111 260.341 C 151.111 261.154,150.670 261.114,149.778 260.222 C 145.559 256.004,144.300 258.735,139.469 282.579 C 133.439 312.344,128.901 324.590,123.620 325.350 C 118.924 326.026,119.300 315.995,125.107 285.698 C 127.996 270.623,127.931 270.000,123.480 270.000 C 116.808 270.000,115.366 275.113,112.138 310.217 C 110.582 327.139,111.153 331.125,115.679 334.933 C 122.020 340.269,126.258 336.443,131.835 320.349 C 133.914 314.352,135.296 311.194,134.907 313.333 C 132.262 327.868,124.672 339.740,118.937 338.310 C 110.936 336.314,109.229 330.421,110.986 310.856 C 114.225 274.793,115.948 268.864,123.179 268.906 C 129.186 268.941,129.294 269.536,126.226 285.673 C 120.313 316.767,119.973 327.505,125.034 323.305 C 129.679 319.450,133.325 308.072,138.912 280.000 C 142.981 259.555,144.431 256.563,149.354 258.452 M156.239 268.611 C 152.322 288.413,151.164 315.830,154.080 319.736 C 161.460 329.621,168.402 322.691,175.519 298.333 C 177.305 292.222,178.794 288.009,178.828 288.971 C 178.939 292.157,173.376 309.334,169.990 316.256 C 162.392 331.789,150.632 326.929,150.990 308.403 C 151.135 300.884,153.876 274.501,155.077 269.058 C 155.475 267.255,155.213 266.596,154.229 266.924 C 153.328 267.224,152.130 272.255,150.962 280.643 C 136.975 381.120,137.526 377.778,134.924 377.778 C 129.387 377.778,129.212 369.352,133.954 331.111 C 134.825 324.083,135.542 317.875,135.547 317.315 C 135.552 316.755,135.810 316.551,136.121 316.861 C 136.431 317.172,135.719 325.880,134.538 336.213 C 131.178 365.614,130.796 371.780,132.175 374.356 C 133.435 376.710,136.667 377.573,136.667 375.555 C 136.667 374.944,139.122 357.069,142.123 335.833 C 145.124 314.597,148.448 290.722,149.511 282.778 C 151.471 268.122,152.323 265.556,155.224 265.556 C 156.396 265.556,156.676 266.399,156.239 268.611 M291.111 267.963 C 291.111 268.676,290.771 268.920,290.356 268.504 C 289.941 268.089,288.420 271.881,286.976 276.930 C 283.575 288.826,279.325 291.571,270.519 287.559 C 267.848 286.342,262.529 278.212,263.662 277.079 C 263.928 276.813,264.780 278.128,265.556 280.002 C 271.101 293.388,282.612 290.403,286.426 274.591 C 288.048 267.864,291.111 263.531,291.111 267.963 M190.682 274.722 C 190.181 278.039,190.299 278.948,191.078 277.778 C 192.030 276.349,192.191 276.388,192.205 278.056 C 192.215 279.125,191.410 280.000,190.417 280.000 C 188.987 280.000,188.756 279.277,189.306 276.528 C 189.688 274.618,190.000 272.368,190.000 271.528 C 190.000 270.688,190.314 270.000,190.698 270.000 C 191.081 270.000,191.074 272.125,190.682 274.722 M264.366 273.121 C 264.302 274.665,264.137 274.613,263.439 272.830 C 262.715 270.977,262.485 271.184,261.874 274.241 C 259.072 288.253,249.988 299.837,240.937 300.942 L 235.000 301.667 234.444 323.098 C 233.993 340.511,233.576 344.727,232.222 345.581 C 227.948 348.278,223.868 345.649,222.705 339.448 C 220.793 329.253,216.990 331.971,211.656 347.345 C 206.080 363.420,205.363 368.062,204.587 393.097 C 203.832 417.482,203.762 417.726,197.529 417.761 C 192.067 417.791,191.123 413.899,191.017 390.889 C 190.914 368.405,188.674 352.778,185.556 352.778 C 184.259 352.778,183.765 354.753,183.333 361.667 C 182.699 371.809,182.041 373.333,178.293 373.333 C 172.922 373.333,172.135 369.998,172.501 348.765 L 172.834 329.444 173.084 348.994 C 173.315 367.146,173.497 368.693,175.621 370.614 C 179.484 374.111,181.615 371.621,181.951 363.218 C 182.348 353.290,182.993 351.111,185.534 351.111 C 189.677 351.111,192.222 366.738,192.222 392.179 C 192.222 413.511,193.013 416.667,198.357 416.667 C 202.604 416.667,203.333 413.575,203.333 395.564 C 203.333 371.922,205.172 361.111,212.434 342.040 C 216.705 330.826,222.168 329.053,223.683 338.390 C 224.464 343.206,226.203 345.556,228.986 345.556 C 232.644 345.556,233.333 341.816,233.333 321.962 C 233.333 300.474,233.486 300.000,240.381 300.000 C 248.485 300.000,255.871 290.200,261.579 271.874 C 262.326 269.474,264.478 270.437,264.366 273.121 M182.111 284.788 C 182.008 287.054,181.939 287.030,181.111 284.444 L 180.222 281.667 180.023 284.444 C 179.914 285.972,179.567 286.581,179.252 285.797 C 178.443 283.782,179.763 280.834,181.103 281.662 C 181.719 282.042,182.172 283.449,182.111 284.788 " stroke="none" fill="#000000" fill-rule="evenodd"></path></g></svg>